<svg aria-hidden="true" style="position: absolute; width: 0; height: 0; overflow: hidden;" version="1.1" xmlns="http://www.w3.org/2000/svg" xmlns:xlink="http://www.w3.org/1999/xlink">
<defs>
<symbol id="icon-phone" viewBox="0 0 31 32">
<path d="M22.894 16.648c-0.12-0.12-0.262-0.215-0.419-0.281s-0.325-0.099-0.495-0.099-0.338 0.033-0.495 0.099c-0.157 0.065-0.299 0.16-0.419 0.281l-2.061 2.061c-0.955-0.284-2.738-0.931-3.868-2.061s-1.777-2.913-2.061-3.868l2.061-2.061c0.12-0.12 0.215-0.262 0.281-0.419s0.099-0.325 0.099-0.495c0-0.17-0.033-0.338-0.099-0.495s-0.16-0.299-0.281-0.419l-5.172-5.172c-0.12-0.12-0.262-0.216-0.419-0.281s-0.325-0.099-0.495-0.099-0.338 0.033-0.495 0.099c-0.157 0.065-0.299 0.16-0.419 0.281l-3.506 3.506c-0.491 0.491-0.768 1.166-0.758 1.855 0.030 1.841 0.517 8.236 5.557 13.276s11.435 5.526 13.277 5.557h0.036c0.683 0 1.328-0.269 1.817-0.758l3.506-3.506c0.12-0.12 0.215-0.262 0.281-0.419s0.099-0.325 0.099-0.495-0.033-0.338-0.099-0.495c-0.065-0.157-0.16-0.299-0.281-0.419l-5.172-5.173zM22.73 25.326c-1.614-0.027-7.134-0.46-11.472-4.799-4.352-4.352-4.774-9.892-4.799-11.473l2.592-2.592 3.344 3.344-1.672 1.672c-0.152 0.152-0.264 0.339-0.325 0.545s-0.070 0.424-0.027 0.634c0.031 0.149 0.79 3.674 2.936 5.821s5.672 2.905 5.821 2.936c0.21 0.045 0.428 0.037 0.634-0.024s0.393-0.173 0.545-0.326l1.673-1.672 3.343 3.343-2.594 2.592z"></path>
</symbol>
<symbol id="icon-envelope" viewBox="0 0 31 32">
<path d="M25.858 5.926h-20.687c-1.426 0-2.586 1.16-2.586 2.586v15.515c0 1.426 1.16 2.586 2.586 2.586h20.687c1.426 0 2.586-1.16 2.586-2.586v-15.515c0-1.426-1.16-2.586-2.586-2.586zM25.858 8.512v0.661l-10.343 8.046-10.343-8.045v-0.662h20.687zM5.172 24.027v-11.579l9.55 7.428c0.226 0.178 0.506 0.274 0.794 0.274s0.567-0.097 0.794-0.274l9.55-7.428 0.003 11.579h-20.689z"></path>
</symbol>
<symbol id="icon-telegram" viewBox="0 0 32 32">
<path d="M16 0c-8.838 0-16 7.162-16 16s7.162 16 16 16 16-7.163 16-16-7.163-16-16-16zM23.863 10.969l-2.625 12.369c-0.181 0.881-0.712 1.087-1.45 0.681l-4-2.956-1.919 1.869c-0.225 0.219-0.4 0.4-0.8 0.4-0.519 0-0.431-0.194-0.606-0.688l-1.363-4.475-3.956-1.231c-0.856-0.262-0.862-0.85 0.194-1.269l15.412-5.95c0.7-0.319 1.381 0.169 1.113 1.25z"></path>
</symbol>
</defs>
</svg>